# xmcd
#
# Track frame offsets: 
#        182
#        11612
#        28027
#        40957
#        52320
#        69637
#        80430
#        92810
#        108705
#        126942
#        137532
#        148935
#        159292
#        171455
#        181442
#        192980
#
# Disc length: 2814 seconds
#
# Revision: 3
# Processed by: cddbd v1.5.2PL0 Copyright (c) Steve Scherf et al.
# Submitted via: ExactAudioCopyFreeDBPlugin 1.0
#
DISCID=ed0afc10
DTITLE=John Lee Hooker - Boom boom
DYEAR=1992
DGENRE=Blues
TTITLE0=Boom boom
TTITLE1=Process
TTITLE2=Lost a good girl
TTITLE3=A new leaf
TTITLE4=Blues before sunrise
TTITLE5=Let's make it
TTITLE6=I got a letter
TTITLE7=Thelma
TTITLE8=House rent boogie
TTITLE9=Keep your hands to yourself
TTITLE10=What do you say
TTITLE11=Big legs tight skirt
TTITLE12=Everybody rockin'
TTITLE13=Onions
TTITLE14=Wheel and deal
TTITLE15=Sadie Mae
EXTD=
EXTT0=
EXTT1=
EXTT2=
EXTT3=
EXTT4=
EXTT5=
EXTT6=
EXTT7=
EXTT8=
EXTT9=
EXTT10=
EXTT11=
EXTT12=
EXTT13=
EXTT14=
EXTT15=
PLAYORDER=
